<?xml version="1.0" standalone="no"?>
<!DOCTYPE svg PUBLIC "-//W3C//DTD SVG 20010904//EN"
 "http://www.w3.org/TR/2001/REC-SVG-20010904/DTD/svg10.dtd">
<svg version="1.0" xmlns="http://www.w3.org/2000/svg"
 width="512.000000pt" height="512.000000pt" viewBox="0 0 512.000000 512.000000"
 preserveAspectRatio="xMidYMid meet">
<metadata>
Created by potrace 1.11, written by Peter Selinger 2001-2013
</metadata>
<g transform="translate(0.000000,512.000000) scale(0.100000,-0.100000)"
fill="#000000" stroke="none">
<path d="M1235 5109 c-136 -27 -219 -118 -254 -282 -21 -95 -24 -128 -25 -262
-1 -173 10 -253 56 -390 25 -73 83 -196 116 -248 l25 -37 -28 -78 c-15 -42
-28 -82 -30 -89 -3 -8 -16 -7 -47 4 -68 25 -162 25 -232 2 -85 -29 -119 -55
-204 -158 -21 -24 -41 -49 -47 -55 -5 -6 -44 -51 -85 -101 -41 -49 -90 -108
-110 -130 -19 -22 -51 -60 -70 -84 -19 -24 -48 -58 -63 -75 -92 -102 -127
-185 -124 -297 4 -117 58 -214 167 -299 25 -19 47 -37 50 -41 3 -3 88 -75 190
-160 102 -84 187 -156 190 -159 3 -3 59 -50 124 -105 66 -55 133 -112 150
-126 29 -25 31 -31 32 -100 1 -109 50 -205 134 -260 l24 -16 -50 -12 c-153
-37 -261 -105 -346 -219 -120 -161 -111 -313 25 -399 33 -21 54 -26 108 -27
91 -1 148 34 195 119 39 71 73 93 154 102 85 9 169 -11 300 -72 63 -29 142
-60 175 -69 77 -20 244 -16 298 7 43 19 44 18 111 -41 34 -29 37 -37 32 -70
-6 -43 -46 -186 -82 -290 -27 -80 -32 -160 -14 -219 49 -152 211 -247 360
-211 123 30 195 106 244 256 10 28 20 52 23 52 5 0 157 -127 208 -173 35 -32
150 -106 196 -125 50 -21 147 -48 199 -56 41 -6 181 -24 230 -31 19 -2 67 -9
105 -14 99 -14 130 -19 220 -31 44 -6 91 -13 105 -15 108 -17 199 -25 221 -22
42 8 84 34 114 69 l27 32 311 1 c172 1 315 3 320 3 4 1 16 11 27 22 28 28 26
71 -5 100 l-26 24 -309 0 -309 0 -10 26 c-13 32 -39 111 -151 460 -50 157
-102 314 -116 349 -27 69 -82 161 -121 203 l-25 26 45 84 c50 91 103 241 113
319 4 33 17 62 36 87 56 70 72 111 75 197 2 71 -1 87 -28 142 -16 33 -45 75
-64 91 l-34 30 102 50 c216 107 352 219 500 413 10 13 40 69 67 124 95 192
131 407 105 635 -4 41 -8 78 -7 81 3 14 -59 233 -76 272 -18 41 -18 43 0 72
76 121 131 260 164 415 39 185 13 493 -52 624 -39 77 -103 127 -195 151 -58
16 -325 12 -394 -4 -27 -7 -59 -15 -71 -17 -134 -26 -350 -134 -471 -236 l-42
-36 -58 20 c-75 25 -244 66 -308 74 -27 3 -53 8 -56 10 -16 9 -181 19 -324 19
-183 0 -281 -8 -420 -36 -27 -5 -59 -11 -70 -13 -43 -9 -143 -36 -199 -56
l-60 -20 -25 22 c-14 13 -28 26 -31 29 -14 18 -186 123 -241 147 -65 29 -176
68 -220 78 -13 2 -46 9 -74 15 -63 13 -317 19 -370 8z"/>
</g>
</svg>
